Coordinates
version=1
nRows=13
nColumns=40
inDegrees=yes

Units are S.I. units (second, meters, Newtons, ...)
Angles are in degrees.

endheader
time	pelvis_tilt	pelvis_list	pelvis_rotation	pelvis_tx	pelvis_ty	pelvis_tz	hip_flexion_r	hip_adduction_r	hip_rotation_r	knee_angle_r	knee_angle_r_beta	ankle_angle_r	subtalar_angle_r	mtp_angle_r	hip_flexion_l	hip_adduction_l	hip_rotation_l	knee_angle_l	knee_angle_l_beta	ankle_angle_l	subtalar_angle_l	mtp_angle_l	lumbar_extension	lumbar_bending	lumbar_rotation	arm_flex_r	arm_add_r	arm_rot_r	elbow_flex_r	pro_sup_r	wrist_flex_r	wrist_dev_r	arm_flex_l	arm_add_l	arm_rot_l	elbow_flex_l	pro_sup_l	wrist_flex_l	wrist_dev_l
     54.96000000	     -3.82889448	     -4.16468353	      6.86426128	      1.08432468	      0.92105381	      0.48849890	      1.22269307	      1.35578155	    -13.79538329	     14.11688950	     14.11688950	     17.79592836	     -1.21989464	     -4.03835691	     28.99120009	     -4.77602764	      2.00536925	     23.79741776	     23.79741776	      7.27114657	    -10.70686433	      5.72003558	     -8.51439459	      4.35628079	      3.23107148	     37.87206441	    -13.58906621	     -0.91939270	    102.04956134	     44.06713804	      0.00000000	      0.00000000	    -10.61506518	     -8.29109002	     -2.96441248	     22.04426825	     46.26927553	      0.00000000	      0.00000000
     54.97271429	     -3.79853366	     -4.14857165	      6.75932086	      1.08650257	      0.92017762	      0.48631331	      0.97424031	      1.14018948	    -13.73142477	     14.78037228	     14.78037228	     18.74288255	     -0.99009558	     -2.45484070	     28.27859071	     -4.73838817	      1.58889608	     23.41712917	     23.41712917	      5.22592376	    -10.88498868	      2.15718365	     -8.39122068	      4.30781120	      3.35291923	     37.32451071	    -13.51008199	     -0.52445224	    103.40569482	     44.08977799	      0.00000000	      0.00000000	    -10.28640823	     -8.25622499	     -2.90431722	     21.95486904	     46.26388744	      0.00000000	      0.00000000
     54.98542857	     -3.72919251	     -4.08822001	      6.75031454	      1.08844764	      0.91967985	      0.48391604	      0.61827137	      0.90732488	    -13.64855221	     15.21718048	     15.21718048	     18.90555414	     -1.14140209	     -2.52318280	     27.81219473	     -4.59044342	      1.42628238	     23.63262113	     23.63262113	      4.82509227	    -10.80601604	      2.20937747	     -8.29986231	      4.19132094	      3.17473249	     36.87358652	    -13.09423953	     -0.31718746	    103.45790153	     44.08272678	      0.00000000	      0.00000000	     -9.87891931	     -8.19900289	     -2.87267872	     22.06278210	     46.26571311	      0.00000000	      0.00000000
     54.99814286	     -3.73170799	     -3.80093535	      6.69396899	      1.09016077	      0.91925026	      0.48127876	      0.76979436	      0.28364452	    -13.43902507	     16.52551118	     16.52551118	     19.24064533	     -1.62491083	     -2.60586834	     27.36408073	     -4.22234110	      1.15358443	     23.80162254	     23.80162254	      4.55704934	    -10.70063802	      1.92416015	     -8.19398460	      3.88138005	      2.85346447	     36.34251978	    -12.51773083	      0.01337038	    103.82747853	     44.07056327	      0.00000000	      0.00000000	     -9.50140586	     -8.20635834	     -2.81210457	     21.99881295	     46.26240058	      0.00000000	      0.00000000
     55.01085714	     -3.66247343	     -3.61097988	      6.70246641	      1.09170662	      0.91917852	      0.47844859	      0.87246360	     -0.23496819	    -13.30905801	     17.82294016	     17.82294016	     19.42390331	     -2.12117402	     -2.64576674	     26.98758692	     -3.91647041	      1.06224629	     24.17737418	     24.17737418	      4.51689305	    -10.78216829	      1.61751206	     -8.15852918	      3.71027701	      2.67006007	     35.57961393	    -12.24119394	      0.33456505	    103.86735049	     44.06809759	      0.00000000	      0.00000000	     -8.82917180	     -8.18687448	     -2.74484660	     22.07267018	     46.26280529	      0.00000000	      0.00000000
     55.02357143	     -3.54964042	     -3.43230490	      6.70768714	      1.09304356	      0.91944691	      0.47557871	      1.08358734	     -0.77417775	    -13.11940071	     19.36034444	     19.36034444	     19.45159781	     -2.63356355	     -2.78470724	     26.58757736	     -3.61832141	      1.03427715	     24.57331183	     24.57331183	      4.66236710	    -10.91883042	      1.39317385	     -8.23843045	      3.51503189	      2.50186142	     34.66196815	    -12.06985280	      0.65497044	    103.69746612	     44.07015095	      0.00000000	      0.00000000	     -8.02340218	     -8.18437083	     -2.67424077	     22.21719792	     46.26456204	      0.00000000	      0.00000000
     55.03628571	     -3.42611716	     -3.24722336	      6.70844585	      1.09424463	      0.91994254	      0.47253830	      1.46093328	     -1.37870518	    -12.94673030	     21.20535486	     21.20535486	     19.35559204	     -3.24259453	     -3.06751353	     26.15648087	     -3.29199157	      1.04580269	     24.93993636	     24.93993636	      5.00862581	    -11.09531142	      1.22971213	     -8.32358820	      3.36828791	      2.39578059	     33.61449717	    -11.97532573	      0.99379597	    103.30558733	     44.07731571	      0.00000000	      0.00000000	     -7.10190663	     -8.17225848	     -2.59846135	     22.44238734	     46.26663659	      0.00000000	      0.00000000
     55.04900000	     -3.33889353	     -3.06990364	      6.68533938	      1.09526673	      0.92053418	      0.46946924	      2.09343390	     -2.03425131	    -12.74516496	     23.39877968	     23.39877968	     19.09826022	     -3.96245510	     -3.53849399	     25.72623521	     -2.96008020	      1.07263089	     25.22178669	     25.22178669	      5.46712056	    -11.28958639	      1.16223855	     -8.35936326	      3.23405772	      2.35411505	     32.47252174	    -11.99944683	      1.34727139	    102.64791788	     44.09298680	      0.00000000	      0.00000000	     -6.07262866	     -8.13664073	     -2.50844556	     22.75439962	     46.26652001	      0.00000000	      0.00000000
     55.06171429	     -3.18875643	     -2.90534284	      6.60957421	      1.09621412	      0.92137174	      0.46641577	      2.79346830	     -2.70063109	    -12.47572721	     25.78569828	     25.78569828	     18.65798626	     -4.64605604	     -4.15584610	     25.18984539	     -2.66155602	      1.05216219	     25.44125326	     25.44125326	      5.98030585	    -11.47413324	      1.13317988	     -8.48059779	      3.13626225	      2.36274706	     31.21689023	    -12.02664902	      1.72161343	    101.75536478	     44.11302270	      0.00000000	      0.00000000	     -5.01182477	     -8.13119673	     -2.43048359	     23.16839914	     46.26828405	      0.00000000	      0.00000000
     55.07442857	     -3.15026592	     -2.79373288	      6.50549800	      1.09694556	      0.92209325	      0.46345197	      3.77421455	     -3.31377767	    -12.06576487	     28.30249935	     28.30249935	     17.34531227	     -5.96611478	     -6.60968702	     24.75732778	     -2.36554197	      1.17593607	     25.61327188	     25.61327188	      6.74573686	    -11.78425475	      1.89709398	     -8.42394181	      3.09600760	      2.25394691	     30.17747079	    -12.09804041	      2.36730931	     99.79877096	     44.19941439	      0.00000000	      0.00000000	     -4.04733523	     -8.15220679	     -2.02297539	     23.77501142	     46.18722627	      0.00000000	      0.00000000
     55.08714286	     -3.01903824	     -2.62402045	      6.30933868	      1.09770460	      0.92295891	      0.46062285	      4.86516094	     -4.06938535	    -11.68722377	     31.24876232	     31.24876232	     16.54081625	     -6.62952843	     -7.42203865	     24.11633683	     -2.12656955	      0.94040840	     25.60845505	     25.60845505	      7.25873501	    -11.74973006	      1.77073256	     -8.53784821	      2.97452880	      2.36025465	     28.77153854	    -12.18088455	      2.74602770	     98.62053139	     44.22740136	      0.00000000	      0.00000000	     -2.93525435	     -8.17049792	     -1.96861627	     24.44910042	     46.19170776	      0.00000000	      0.00000000
     55.09985714	     -2.93072857	     -2.48437467	      6.06739809	      1.09828851	      0.92369990	      0.45794293	      6.17173579	     -4.79019007	    -11.19086749	     34.38713290	     34.38713290	     15.43644518	     -7.46447755	     -8.36181356	     23.51746486	     -1.91357047	      0.71547467	     25.56592296	     25.56592296	      7.71336872	    -11.82588419	      1.69412870	     -8.58562883	      2.90334535	      2.55795687	     27.34542391	    -12.35683797	      3.12590842	     96.98917778	     44.26905343	      0.00000000	      0.00000000	     -1.78547791	     -8.19953152	     -1.91230282	     25.25562975	     46.19532304	      0.00000000	      0.00000000
     55.11257143	     -2.86322170	     -2.47853022	      5.80932031	      1.09880078	      0.92440202	      0.45554997	      7.45352447	     -5.23010081	    -10.45359169	     37.12540675	     37.12540675	     12.54478267	     -9.61275769	    -13.25803876	     22.92992090	     -1.82367241	      0.63666531	     25.46875949	     25.46875949	      8.21295164	    -12.00731220	      1.89824336	     -8.48006295	      2.92466054	      1.90366306	     26.94366901	    -11.85966645	      4.14915560	     92.72904299	     44.42377131	      0.00000000	      0.00000000	     -1.63759837	     -8.54664901	     -1.28567982	     27.39327790	     46.04891141	      0.00000000	      0.00000000
